<svg width="150" height="48" viewBox="0 0 150 48" fill="none" xmlns="http://www.w3.org/2000/svg">
<path d="M9.63183 47.9967C9.24435 47.9967 8.86568 47.9913 8.48151 47.9826C7.68494 47.9723 6.89022 47.9039 6.10383 47.7779C5.3706 47.6535 4.66015 47.422 3.99583 47.0908C3.33834 46.7622 2.73847 46.3314 2.21917 45.8146C1.69231 45.3043 1.25352 44.7121 0.920252 44.0614C0.583981 43.4076 0.351206 42.7065 0.230063 41.9827C0.0993951 41.2051 0.0287411 40.4189 0.0187133 39.6307C0.0110078 39.365 0 38.4841 0 38.4841V9.49743C0 9.49743 0.0110078 8.62957 0.0187133 8.37477C0.0286203 7.58749 0.0990702 6.80239 0.228962 6.02491C0.350458 5.299 0.583589 4.59577 0.920252 3.93966C1.59797 2.63296 2.67391 1.57015 3.99583 0.901613C4.65801 0.57223 5.36633 0.342829 6.09722 0.221048C6.88648 0.0936458 7.68455 0.0250448 8.48371 0.0141558L9.63183 0H140.362L141.523 0.0152447C142.314 0.0250448 143.105 0.0925569 143.886 0.219959C144.625 0.343431 145.342 0.575 146.012 0.907058C147.332 1.577 148.406 2.63904 149.084 3.94401C149.415 4.59518 149.646 5.29317 149.766 6.01293C149.898 6.79585 149.971 7.58749 149.986 8.3813C149.99 8.73628 149.99 9.11849 149.99 9.49743C150 9.96892 150 10.4165 150 10.8684V37.1295C150 37.5868 150 38.0311 149.99 38.4797C149.99 38.887 149.99 39.2615 149.985 39.6448C149.97 40.4256 149.898 41.202 149.768 41.9718C149.649 42.701 149.417 43.4076 149.081 44.0669C148.745 44.7101 148.309 45.2969 147.789 45.8059C147.269 46.3252 146.668 46.7583 146.009 47.0886C145.34 47.4226 144.625 47.6553 143.886 47.779C143.1 47.9053 142.306 47.975 141.509 47.9837C141.137 47.9924 140.746 47.9967 140.367 47.9967L138.989 48L9.63072 47.9967H9.63183Z" fill="black"/>
<path d="M30.479 23.3597C30.4947 22.2639 30.7873 21.1898 31.3294 20.2373C31.8715 19.2848 32.6456 18.4847 33.5797 17.9116C32.9848 17.064 32.2004 16.3669 31.2888 15.8756C30.3773 15.3842 29.3637 15.1123 28.3286 15.0813C26.1192 14.8503 23.9776 16.3995 22.8509 16.3995C21.7035 16.3995 19.9703 15.1043 18.1035 15.1426C16.8962 15.1812 15.7195 15.5312 14.6874 16.1587C13.6568 16.7854 12.8062 17.6685 12.2184 18.7218C9.6739 23.1145 11.5724 29.5722 14.0097 33.1229C15.2283 34.8616 16.6538 36.805 18.5195 36.736C20.3436 36.6594 21.0257 35.5754 23.2286 35.5754C25.4108 35.5754 26.0513 36.736 27.9531 36.6922C29.913 36.6594 31.1458 34.9448 32.3217 33.1897C33.1978 31.9511 33.8722 30.5816 34.3199 29.132C33.1827 28.6526 32.2117 27.8492 31.5279 26.8218C30.8454 25.7961 30.4805 24.5918 30.479 23.3597ZM26.8856 12.7459C27.9532 11.469 28.4797 9.82552 28.3527 8.16595C26.7223 8.33623 25.2156 9.11363 24.1319 10.3437C23.6032 10.9436 23.1981 11.642 22.9397 12.3988C22.6814 13.1556 22.5749 13.9559 22.6265 14.7539C23.4419 14.7622 24.2486 14.5859 24.9862 14.2381C25.7238 13.8904 26.3731 13.3802 26.8856 12.7459ZM52.3746 32.5076H46.3856L44.948 36.7426H42.4111L48.0827 21.0747H50.7192L56.3918 36.7426H53.8133L52.3757 32.5076H52.3746ZM47.0064 30.5532H51.7538L49.413 23.6806H49.3473L47.0064 30.5532ZM68.6436 31.0327C68.6436 34.5813 66.7385 36.8619 63.8633 36.8619C63.1357 36.8996 62.4122 36.7323 61.775 36.379C61.1378 36.0258 60.6125 35.5008 60.2589 34.8638H60.2042V40.5222H57.8524V25.3196H60.1297V27.2192H60.1724C60.5409 26.5844 61.0747 26.0613 61.717 25.7058C62.3592 25.3502 63.0859 25.1755 63.8195 25.2003C66.7265 25.2003 68.6436 27.4919 68.6436 31.0316V31.0327ZM66.2261 31.0327C66.2261 28.7192 65.0283 27.1984 63.1987 27.1984C61.4031 27.1984 60.1943 28.751 60.1943 31.0316C60.1943 33.3331 61.4031 34.8747 63.1987 34.8747C65.0272 34.8747 66.2261 33.366 66.2261 31.0316V31.0327ZM81.2513 31.0327C81.2513 34.5813 79.3462 36.8619 76.471 36.8619C75.7434 36.8996 75.0198 36.7323 74.3826 36.379C73.7454 36.0258 73.2202 35.5008 72.8666 34.8638H72.8119V40.5222H70.4611V25.3196H72.7363V27.2192H72.7801C73.1486 26.5844 73.6824 26.0613 74.3246 25.7058C74.9669 25.3502 75.6935 25.1755 76.4272 25.2003C79.3352 25.2003 81.2513 27.4919 81.2513 31.0316V31.0327ZM78.8348 31.0327C78.8348 28.7192 77.6359 27.1984 75.8075 27.1984C74.0108 27.1984 72.802 28.751 72.802 31.0316C72.802 33.3331 74.0108 34.8747 75.8075 34.8747C77.6359 34.8747 78.8348 33.366 78.8348 31.0316V31.0327ZM89.5834 32.3773C89.7586 33.932 91.2717 34.9503 93.34 34.9503C95.3217 34.9503 96.7484 33.932 96.7484 32.5306C96.7484 31.3141 95.8878 30.586 93.8524 30.0868L91.8159 29.5973C88.9308 28.9032 87.5907 27.5576 87.5907 25.3733C87.5907 22.67 89.9535 20.813 93.306 20.813C96.6279 20.813 98.9042 22.67 98.9808 25.3733H96.6071C96.4648 23.8098 95.1684 22.866 93.2743 22.866C91.3801 22.866 90.0848 23.8207 90.0848 25.2112C90.0848 26.3192 90.9126 26.9707 92.937 27.47L94.6681 27.8937C97.8925 28.6535 99.2305 29.9444 99.2305 32.2371C99.2305 35.1681 96.8896 37.0043 93.1659 37.0043C89.6819 37.0043 87.329 35.2108 87.1768 32.3773H89.5834ZM104.307 22.6163V25.3196H106.486V27.1765H104.307V33.4743C104.307 34.4521 104.743 34.9087 105.701 34.9087C105.96 34.9032 106.218 34.8857 106.474 34.8539V36.6999C106.044 36.7801 105.607 36.8164 105.169 36.8083C102.849 36.8083 101.945 35.9389 101.945 33.724V27.1765H100.28V25.3196H101.946V22.6152H104.309L104.307 22.6163ZM107.747 31.0327C107.747 27.4371 109.868 25.1795 113.179 25.1795C116.5 25.1795 118.613 27.4382 118.613 31.0316C118.613 34.636 116.511 36.8849 113.179 36.8849C109.848 36.8849 107.747 34.636 107.747 31.0316V31.0327ZM116.218 31.0327C116.218 28.566 115.084 27.1108 113.179 27.1108C111.274 27.1108 110.141 28.578 110.141 31.0316C110.141 33.5072 111.274 34.9514 113.179 34.9514C115.084 34.9514 116.218 33.5072 116.218 31.0316V31.0327ZM120.552 25.3196H122.795V27.2641H122.848C123.001 26.6558 123.358 26.1185 123.86 25.7426C124.362 25.3667 124.978 25.1752 125.604 25.2003C125.876 25.1992 126.145 25.2287 126.41 25.2879V27.4809C126.068 27.3765 125.711 27.3284 125.353 27.3386C125.012 27.3249 124.672 27.385 124.356 27.5149C124.039 27.6447 123.755 27.8411 123.522 28.0908C123.289 28.3403 123.113 28.6372 123.006 28.9612C122.9 29.2852 122.864 29.6285 122.903 29.9674V36.7426H120.551L120.552 25.3196ZM137.252 33.3868C136.935 35.4616 134.91 36.8849 132.319 36.8849C128.986 36.8849 126.918 34.6579 126.918 31.0864C126.918 27.5028 128.997 25.1795 132.22 25.1795C135.389 25.1795 137.382 27.3506 137.382 30.8138V31.6174H129.292V31.7597C129.255 32.1808 129.308 32.6049 129.447 33.0038C129.587 33.4028 129.81 33.7674 130.101 34.0734C130.393 34.3794 130.746 34.6198 131.138 34.7786C131.529 34.9373 131.95 35.0108 132.373 34.9941C132.928 35.0469 133.485 34.9191 133.962 34.6297C134.439 34.3403 134.81 33.9048 135.019 33.3879H137.252V33.3868ZM129.303 29.9784H135.03C135.062 29.4081 134.915 28.8421 134.61 28.3593C134.304 27.8765 133.856 27.5009 133.328 27.2849C132.976 27.1408 132.599 27.0708 132.22 27.0791C131.837 27.077 131.458 27.1504 131.104 27.2951C130.749 27.4397 130.427 27.6528 130.156 27.9222C129.885 28.1916 129.67 28.512 129.523 28.8649C129.377 29.2179 129.302 29.5963 129.303 29.9784ZM45.3367 12.4634H46.3462C46.5196 12.4849 46.6957 12.4702 46.8632 12.4205C47.0308 12.3707 47.1862 12.2869 47.3199 12.1742C47.4535 12.0615 47.5624 11.9225 47.6398 11.7658C47.7172 11.609 47.7613 11.438 47.7695 11.2634C47.7695 10.5692 47.2451 10.1214 46.3571 10.1214C46.0892 10.0844 45.8163 10.1286 45.5738 10.2485C45.3314 10.3684 45.1305 10.5583 44.9973 10.7937C44.9097 10.9503 44.8538 11.1222 44.833 11.3006H43.725C43.744 10.9769 43.8297 10.6607 43.9766 10.3717C44.1236 10.0827 44.3287 9.82711 44.579 9.62106C44.8295 9.41438 45.1198 9.26137 45.4319 9.17153C45.744 9.08169 46.0712 9.05693 46.3932 9.0988C47.879 9.0988 48.9257 9.92873 48.9257 11.1233C48.9293 11.524 48.7949 11.9138 48.5451 12.2272C48.2953 12.5406 47.9453 12.7585 47.5538 12.8444V12.9331C48.0192 12.955 48.456 13.1565 48.7703 13.4981C49.0856 13.8397 49.252 14.2908 49.2334 14.7539C49.1819 15.2562 48.9802 15.7313 48.6546 16.1173C48.329 16.5032 47.8947 16.782 47.4082 16.9174C47.085 17.0079 46.7471 17.0333 46.414 16.9919C45.9117 17.0596 45.4007 16.9743 44.9476 16.7469C44.4946 16.5195 44.1208 16.1607 43.875 15.7174C43.713 15.4231 43.6121 15.0991 43.5783 14.7649H44.7038C44.7717 15.4842 45.4352 15.9495 46.414 15.9495C47.3918 15.9495 48.0312 15.4273 48.0312 14.6915C48.0312 13.9459 47.429 13.4871 46.3779 13.4871H45.3367V12.4645V12.4634ZM50.5122 15.2028C50.5122 14.1802 51.2765 13.5911 52.6308 13.5068L54.1746 13.4192V12.9276C54.1746 12.3276 53.7783 11.9893 53.0075 11.9893C52.3801 11.9893 51.9465 12.2192 51.8206 12.6211H50.7323C50.8473 11.6444 51.7692 11.0192 53.0611 11.0192C54.4889 11.0192 55.2947 11.7276 55.2947 12.9276V16.8101H54.2108V16.0108H54.1232C53.9423 16.2979 53.6885 16.5317 53.3876 16.6885C53.0867 16.8453 52.7496 16.9194 52.4108 16.9032C52.0508 16.9403 51.6884 16.8633 51.3746 16.6831C51.0608 16.503 50.8116 16.2287 50.6622 15.8992C50.5637 15.6802 50.5133 15.4426 50.5122 15.2028ZM54.1746 14.7178V14.2426L52.783 14.3313C51.998 14.3838 51.6422 14.6499 51.6422 15.1503C51.6422 15.6616 52.0878 15.9605 52.6987 15.9605C52.9685 15.9874 53.2401 15.9324 53.478 15.8025C53.7159 15.6725 53.9091 15.4739 54.0323 15.2324C54.1139 15.0722 54.1623 14.8971 54.1746 14.7178ZM58.2805 12.0725V16.8101H57.1549V11.1276H60.906V12.0725H58.2805ZM67.7206 13.9667C67.7206 15.7722 66.8053 16.9032 65.3666 16.9032C65.014 16.927 64.662 16.85 64.3515 16.6811C64.0411 16.5122 63.7852 16.2585 63.6137 15.9495H63.525V18.6977H62.4005V11.1287H63.4823V12.067H63.5666C63.7406 11.7467 63.9998 11.4807 64.3155 11.2985C64.6312 11.1163 64.9912 11.0249 65.3557 11.0346C66.8053 11.0346 67.7206 12.1612 67.7206 13.9667ZM66.5644 13.9667C66.5644 12.7667 65.9951 12.0419 65.0425 12.0419C64.0954 12.0419 63.5042 12.782 63.5042 13.9711C63.5042 15.1557 64.0954 15.897 65.037 15.897C65.9951 15.897 66.5644 15.1722 66.5644 13.9667ZM69.2184 18.8444V17.8798C69.34 17.8952 69.4626 17.9017 69.5852 17.9006C69.8243 17.918 70.0614 17.8468 70.2514 17.7006C70.4414 17.5544 70.571 17.3435 70.6155 17.1079L70.6998 16.8309L68.6381 11.1276H69.8622L71.29 15.6397H71.3797L72.8031 11.1276H73.9954L71.8713 17.0433C71.3841 18.4262 70.8454 18.8696 69.6838 18.8696C69.5907 18.8696 69.3224 18.8587 69.2184 18.8433V18.8444ZM74.8713 15.1973H75.9903C76.0998 15.6988 76.5706 15.9594 77.2297 15.9594C77.9786 15.9594 78.4385 15.6309 78.4385 15.1196C78.4385 14.5722 78.0257 14.3094 77.2297 14.3094H76.3768V13.4389H77.2155C77.8943 13.4389 78.2403 13.1784 78.2403 12.7043C78.2403 12.286 77.9064 11.9685 77.2155 11.9685C76.5859 11.9685 76.1261 12.2346 76.0538 12.6824H74.9699C75.0531 12.1671 75.3344 11.7047 75.7537 11.3938C76.173 11.0829 76.6972 10.9481 77.2144 11.0181C78.5688 11.0181 79.344 11.6291 79.344 12.5893C79.3505 12.857 79.2645 13.1188 79.1006 13.3306C78.9367 13.5424 78.7048 13.6913 78.444 13.7521V13.8408C78.7541 13.8807 79.0389 14.0328 79.2445 14.2684C79.4501 14.5041 79.5622 14.8069 79.5597 15.1196C79.5597 16.1992 78.6378 16.9141 77.2297 16.9141C75.9859 16.9141 74.9743 16.3448 74.8713 15.1973ZM81.179 16.8101V11.1276H82.2925V15.0364H82.3823L85.0078 11.1276H86.1224V16.8101H85.0067V12.8816H84.9224L82.2925 16.8101H81.1779H81.179ZM92.2615 12.0725H90.4681V16.8101H89.3425V12.0725H87.5469V11.1276H92.2615V12.0714V12.0725ZM98.3195 15.2762C98.166 15.7963 97.8345 16.2459 97.3829 16.5461C96.9313 16.8464 96.3885 16.9782 95.8494 16.9185C95.2845 16.9332 94.7302 16.7628 94.271 16.4333C93.8118 16.1038 93.473 15.6333 93.306 15.0933C93.1964 14.7355 93.1661 14.3582 93.2173 13.9875C93.1672 13.6151 93.198 13.2363 93.3076 12.8769C93.4172 12.5176 93.603 12.186 93.8524 11.905C94.1017 11.6231 94.4086 11.3981 94.7524 11.2451C95.0961 11.0921 95.4688 11.0147 95.8451 11.0181C97.4294 11.0181 98.3874 12.0988 98.3874 13.8824V14.2743H94.3637V14.3368C94.3363 14.6514 94.4093 14.9667 94.5722 15.2373C94.7351 15.508 94.9794 15.7201 95.2702 15.8433C95.463 15.9254 95.671 15.967 95.8812 15.9638C96.1496 15.9957 96.4215 15.9475 96.6625 15.8251C96.9036 15.7027 97.103 15.5117 97.2356 15.2762H98.3195ZM94.3637 13.4444H97.24C97.2544 13.2534 97.2287 13.0615 97.1643 12.8811C97.0999 12.7007 96.9984 12.5358 96.8663 12.3971C96.7342 12.2584 96.5745 12.149 96.3974 12.0759C96.2204 12.0028 96.03 11.9677 95.8385 11.9729C95.5459 11.9692 95.2589 12.0536 95.0149 12.2151C94.7708 12.3765 94.5809 12.6076 94.4699 12.8784C94.3976 13.0579 94.3604 13.2506 94.3637 13.4444ZM103.086 11.1276H105.656C106.77 11.1276 107.425 11.6915 107.425 12.5729C107.427 12.8532 107.332 13.1256 107.156 13.3442C106.981 13.5628 106.735 13.7142 106.461 13.7729V13.8616C106.793 13.8828 107.105 14.0305 107.331 14.2743C107.558 14.518 107.683 14.8393 107.68 15.1722C107.68 16.163 106.932 16.8101 105.682 16.8101H103.087V11.1276H103.086ZM104.2 11.9893V13.4598H105.315C105.994 13.4598 106.32 13.1992 106.32 12.7185C106.32 12.2762 106.036 11.9893 105.44 11.9893H104.2ZM104.2 14.2842V15.9484H105.534C106.198 15.9484 106.554 15.6561 106.554 15.1196C106.554 14.5503 106.151 14.2842 105.394 14.2842H104.2Z" fill="white"/>
</svg>
