<svg width="150" height="48" viewBox="0 0 150 48" fill="none" xmlns="http://www.w3.org/2000/svg">
<path d="M144.444 0H5.55556C4.08213 0 2.66905 0.632141 1.62718 1.75736C0.585316 2.88258 0 4.4087 0 6L0 42C0 43.5913 0.585316 45.1174 1.62718 46.2426C2.66905 47.3679 4.08213 48 5.55556 48H144.444C145.918 48 147.331 47.3679 148.373 46.2426C149.415 45.1174 150 43.5913 150 42V6C150 4.4087 149.415 2.88258 148.373 1.75736C147.331 0.632141 145.918 0 144.444 0Z" fill="black"/>
<path d="M75.4582 25.4381C74.5254 25.4403 73.6142 25.7191 72.8398 26.2391C72.0655 26.7591 71.4627 27.4971 71.1077 28.3597C70.7527 29.2223 70.6615 30.1707 70.8455 31.0852C71.0296 31.9996 71.4807 32.839 72.1417 33.4971C72.8028 34.1552 73.6441 34.6025 74.5594 34.7824C75.4746 34.9624 76.4227 34.8669 77.2837 34.508C78.1447 34.1492 78.8799 33.5431 79.3965 32.7664C79.913 31.9897 80.1877 31.0773 80.1857 30.1445C80.195 29.522 80.0789 28.904 79.8443 28.3274C79.6097 27.7507 79.2613 27.2272 78.8201 26.788C78.3788 26.3488 77.8537 26.0029 77.2759 25.771C76.6982 25.5391 76.0796 25.4259 75.4572 25.4381H75.4582ZM75.4582 33.0016C74.8863 33.0416 74.3156 32.9086 73.8203 32.6199C73.325 32.3313 72.928 31.9003 72.6809 31.3831C72.4338 30.8658 72.348 30.2861 72.4347 29.7194C72.5214 29.1528 72.7765 28.6253 73.167 28.2055C73.5574 27.7858 74.0651 27.4932 74.6241 27.3658C75.183 27.2385 75.7673 27.2822 76.3011 27.4913C76.8349 27.7004 77.2934 28.0653 77.617 28.5385C77.9407 29.0117 78.1145 29.5712 78.1159 30.1445C78.1336 30.5077 78.0784 30.8708 77.9536 31.2123C77.8288 31.5539 77.637 31.867 77.3893 32.1333C77.1416 32.3995 76.8432 32.6135 76.5115 32.7626C76.1798 32.9118 75.8217 32.993 75.4582 33.0016ZM65.1374 25.4381C64.2046 25.4405 63.2936 25.7194 62.5193 26.2396C61.7451 26.7597 61.1424 27.4978 60.7876 28.3604C60.4328 29.223 60.3417 30.1714 60.5259 31.0858C60.71 32.0002 61.1612 32.8394 61.8223 33.4974C62.4834 34.1554 63.3247 34.6026 64.2399 34.7825C65.1552 34.9624 66.1032 34.8668 66.9641 34.5079C67.8251 34.1491 68.5603 33.543 69.0768 32.7663C69.5933 31.9896 69.8679 31.0773 69.8659 30.1445C69.8752 29.522 69.7591 28.904 69.5245 28.3274C69.2899 27.7507 68.9415 27.2272 68.5003 26.788C68.059 26.3488 67.5339 26.0029 66.9561 25.771C66.3784 25.5391 65.7598 25.4259 65.1374 25.4381ZM65.1374 33.0016C64.5655 33.0416 63.9948 32.9086 63.4995 32.6199C63.0042 32.3313 62.6072 31.9003 62.3601 31.3831C62.113 30.8658 62.0272 30.2861 62.1139 29.7194C62.2005 29.1528 62.4557 28.6253 62.8462 28.2055C63.2366 27.7858 63.7443 27.4932 64.3033 27.3658C64.8622 27.2385 65.4465 27.2822 65.9803 27.4913C66.5141 27.7004 66.9726 28.0653 67.2962 28.5385C67.6199 29.0117 67.7937 29.5712 67.7951 30.1445C67.8128 30.5077 67.7576 30.8708 67.6328 31.2123C67.508 31.5539 67.3162 31.867 67.0685 32.1333C66.8208 32.3995 66.5224 32.6135 66.1907 32.7626C65.859 32.9118 65.5009 32.993 65.1374 33.0016ZM52.8676 26.8888V28.8821H57.6515C57.5765 29.8209 57.1862 30.7068 56.5441 31.3959C56.0642 31.8848 55.4871 32.2676 54.8499 32.5194C54.2128 32.7712 53.5299 32.8864 52.8454 32.8576C51.4357 32.8576 50.0837 32.2976 49.0868 31.3007C48.09 30.3039 47.53 28.9519 47.53 27.5422C47.53 26.1324 48.09 24.7804 49.0868 23.7836C50.0837 22.7867 51.4357 22.2267 52.8454 22.2267C54.1969 22.2066 55.5019 22.7199 56.4776 23.6553L57.884 22.2489C57.224 21.5961 56.4403 21.0816 55.5789 20.7355C54.7176 20.3894 53.7958 20.2187 52.8676 20.2334C51.881 20.1917 50.8962 20.35 49.9724 20.6987C49.0486 21.0475 48.2049 21.5795 47.4921 22.2628C46.7793 22.9461 46.2121 23.7666 45.8246 24.6748C45.4371 25.583 45.2373 26.5603 45.2373 27.5477C45.2373 28.5351 45.4371 29.5124 45.8246 30.4206C46.2121 31.3288 46.7793 32.1493 47.4921 32.8326C48.2049 33.5159 49.0486 34.0479 49.9724 34.3967C50.8962 34.7454 51.881 34.9037 52.8676 34.862C53.8147 34.8997 54.7591 34.7366 55.6387 34.3835C56.5183 34.0305 57.3134 33.4953 57.9716 32.8133C59.1348 31.536 59.7548 29.8558 59.7001 28.1291C59.7038 27.7135 59.6701 27.2984 59.5995 26.8888H52.8676ZM103.043 28.4391C102.754 27.5896 102.214 26.8479 101.494 26.312C100.774 25.7762 99.9089 25.4714 99.0122 25.4381C98.4065 25.437 97.8069 25.56 97.2506 25.7997C96.6943 26.0395 96.1931 26.3907 95.778 26.8318C95.3628 27.2729 95.0425 27.7945 94.8369 28.3643C94.6314 28.9341 94.5448 29.54 94.5827 30.1445C94.5732 31.1554 94.891 32.1422 95.4886 32.9576C96.0863 33.7729 96.9316 34.3731 97.8985 34.6683C98.8653 34.9636 99.9017 34.9382 100.853 34.5959C101.804 34.2535 102.619 33.6127 103.176 32.769L101.57 31.6616C101.331 32.0608 100.991 32.3904 100.585 32.6177C100.179 32.845 99.7203 32.9621 99.2548 32.9573C98.775 32.977 98.3004 32.8511 97.8935 32.5962C97.4865 32.3412 97.1662 31.9691 96.9746 31.5287L103.276 28.9264L103.043 28.4391ZM96.6203 30.0116C96.5978 29.6677 96.6442 29.3227 96.7568 28.9968C96.8693 28.671 97.0457 28.3709 97.2757 28.1142C97.5057 27.8574 97.7846 27.6491 98.0961 27.5014C98.4075 27.3537 98.7454 27.2697 99.0897 27.2542C99.4465 27.2325 99.8018 27.3165 100.111 27.4957C100.42 27.675 100.67 27.9415 100.828 28.262L96.6203 30.0116ZM91.5041 34.574H93.575V20.7318H91.5041V34.574ZM88.1156 26.4902H88.038C87.7236 26.1479 87.3396 25.877 86.9117 25.6955C86.4838 25.514 86.0221 25.4263 85.5575 25.4381C84.3473 25.4968 83.2061 26.0189 82.3704 26.8961C81.5347 27.7733 81.0685 28.9385 81.0685 30.1501C81.0685 31.3616 81.5347 32.5268 82.3704 33.404C83.2061 34.2812 84.3473 34.8033 85.5575 34.862C86.027 34.8714 86.4928 34.777 86.9216 34.5856C87.3504 34.3942 87.7316 34.1104 88.038 33.7546H88.1156V34.4301C88.1156 36.2351 87.1521 37.1985 85.6018 37.1985C85.0839 37.1872 84.5811 37.0221 84.1572 36.7244C83.7332 36.4267 83.4074 36.0097 83.2209 35.5264L81.427 36.2683C81.7586 37.1014 82.3353 37.8141 83.0807 38.3124C83.8262 38.8107 84.7053 39.071 85.6018 39.0589C88.027 39.0589 90.0313 37.6304 90.0313 34.1532V25.715H88.1156V26.4902ZM85.7347 33.0016C85.0062 32.9605 84.3211 32.6422 83.8199 32.1119C83.3187 31.5817 83.0394 30.8797 83.0394 30.1501C83.0394 29.4204 83.3187 28.7185 83.8199 28.1882C84.3211 27.6579 85.0062 27.3396 85.7347 27.2985C86.0893 27.3138 86.4372 27.4003 86.7578 27.5528C87.0783 27.7054 87.3648 27.9208 87.6004 28.1863C87.836 28.4518 88.0157 28.762 88.1289 29.0984C88.2422 29.4348 88.2866 29.7906 88.2595 30.1445C88.2897 30.4996 88.2476 30.8572 88.1357 31.1956C88.0237 31.534 87.8444 31.8461 87.6083 32.1132C87.3723 32.3803 87.0846 32.5967 86.7626 32.7494C86.4405 32.9021 86.0908 32.9879 85.7347 33.0016ZM112.743 20.7318H107.782V34.574H109.852V29.3251H112.743C113.332 29.3654 113.923 29.2842 114.479 29.0866C115.035 28.8889 115.545 28.579 115.976 28.176C116.408 27.7731 116.752 27.2858 116.987 26.7443C117.222 26.2028 117.344 25.6188 117.344 25.0284C117.344 24.4381 117.222 23.854 116.987 23.3125C116.752 22.771 116.408 22.2837 115.976 21.8808C115.545 21.4778 115.035 21.1679 114.479 20.9703C113.923 20.7726 113.332 20.6914 112.743 20.7318ZM112.743 27.3761H109.852V22.6586H112.787C113.256 22.6579 113.715 22.7964 114.105 23.0566C114.495 23.3169 114.799 23.6871 114.978 24.1204C115.158 24.5537 115.205 25.0305 115.113 25.4904C115.021 25.9503 114.794 26.3725 114.462 26.7036C114.018 27.1485 113.415 27.3982 112.787 27.3982L112.743 27.3761ZM125.522 25.3938C124.768 25.3476 124.017 25.5233 123.361 25.8992C122.706 26.2751 122.175 26.8347 121.834 27.5089L123.662 28.273C123.846 27.9398 124.123 27.6672 124.459 27.4884C124.795 27.3095 125.176 27.232 125.555 27.2653C125.818 27.2343 126.085 27.2561 126.339 27.3293C126.593 27.4025 126.831 27.5258 127.037 27.6918C127.243 27.8578 127.414 28.0633 127.54 28.2962C127.666 28.5291 127.744 28.7847 127.77 29.0482V29.1811C127.104 28.8311 126.363 28.6487 125.611 28.6495C123.639 28.6495 121.624 29.7569 121.624 31.7724C121.643 32.2009 121.748 32.6211 121.933 33.0081C122.118 33.395 122.379 33.7407 122.701 34.0244C123.022 34.3086 123.397 34.5253 123.804 34.6616C124.21 34.7979 124.64 34.851 125.068 34.8177C125.588 34.8467 126.106 34.7369 126.569 34.4995C127.032 34.262 127.424 33.9056 127.703 33.4667H127.77V34.574H129.763V29.2475C129.763 26.8224 127.925 25.416 125.566 25.416L125.522 25.3938ZM125.267 32.9794C124.592 32.9794 123.65 32.6361 123.65 31.8056C123.65 30.6982 124.824 30.3217 125.865 30.3217C126.523 30.3056 127.173 30.4662 127.748 30.7868C127.678 31.3882 127.393 31.944 126.945 32.3512C126.497 32.7584 125.917 32.9895 125.312 33.0016L125.267 32.9794ZM137.028 25.715L134.658 31.717H134.591L132.133 25.715H129.918L133.606 34.1089L131.502 38.771H133.717L139.331 25.715H137.028ZM118.424 34.574H120.483V20.7318H118.424V34.574Z" fill="white"/>
<path d="M11.5608 9.70111C11.2079 10.1375 11.0337 10.6916 11.0736 11.2514V35.7467C11.0359 36.3119 11.223 36.8691 11.5941 37.2971L11.6716 37.3857L25.3588 23.6652V23.333L11.6384 9.6236L11.5608 9.70111Z" fill="url(#paint0_linear_99_5696)"/>
<path d="M29.8989 28.2389L25.3586 23.6654V23.3332L29.8989 18.7597L29.9986 18.8261L35.4348 21.9046C36.9852 22.7795 36.9852 24.2191 35.4348 25.105L30.0207 28.1835L29.8989 28.2389Z" fill="url(#paint1_linear_99_5696)"/>
<path d="M30.0314 28.1732L25.3583 23.5L11.5603 37.298C11.8732 37.5765 12.2738 37.7368 12.6924 37.7509C13.1111 37.7651 13.5216 37.6323 13.8526 37.3755L30.0304 28.1732" fill="url(#paint2_linear_99_5696)"/>
<path d="M30.0322 18.8264L13.8523 9.63516C13.5235 9.37483 13.1134 9.23878 12.6941 9.25093C12.2748 9.26308 11.8733 9.42266 11.5601 9.7016L25.3591 23.4996L30.0322 18.8264Z" fill="url(#paint3_linear_99_5696)"/>
<path opacity="0.2" d="M29.8986 28.0734L13.8516 37.2093C13.5326 37.4501 13.1438 37.5803 12.7442 37.5803C12.3446 37.5803 11.9558 37.4501 11.6368 37.2093L11.5603 37.2868L11.6378 37.3754C11.9568 37.6162 12.3456 37.7464 12.7452 37.7464C13.1448 37.7464 13.5336 37.6162 13.8526 37.3754L30.0304 28.1731L29.8986 28.0734Z" fill="black"/>
<path opacity="0.12" d="M11.5616 37.143C11.2059 36.7037 11.0316 36.1451 11.0743 35.5815V35.7477C11.0366 36.3128 11.2236 36.8701 11.5948 37.298L11.6723 37.2205L11.5616 37.143ZM35.4368 24.9396L29.8999 28.0735L30.0005 28.1732L35.4368 25.0946C35.7577 24.9589 36.0361 24.7392 36.2427 24.4586C36.4493 24.1779 36.5764 23.8468 36.6106 23.5C36.5414 23.8151 36.3991 24.1096 36.1952 24.3596C35.9913 24.6097 35.7315 24.8083 35.4368 24.9396Z" fill="black"/>
<path opacity="0.25" d="M13.8523 9.79051L35.4352 22.0603C35.7299 22.1916 35.9896 22.3903 36.1935 22.6404C36.3974 22.8904 36.5397 23.1848 36.609 23.4999C36.5748 23.1531 36.4477 22.822 36.2411 22.5414C36.0345 22.2607 35.7561 22.041 35.4352 21.9053L13.8523 9.63548C12.313 8.74958 11.0728 9.48045 11.0728 11.2523V11.4194C11.0728 9.64756 12.313 8.91669 13.8523 9.79152V9.79051Z" fill="white"/>
<path d="M46.6306 17.1543H45.8232V14.9395H46.5098C46.8187 14.6041 47.051 14.2056 47.1906 13.7716C47.3302 13.3375 47.3737 12.8783 47.3182 12.4257V9.10358H51.7477V14.9284H52.4897V17.1432H51.6702V15.7479H46.6306V17.1543ZM48.1709 12.4257C48.2203 13.3153 48.0003 14.199 47.5397 14.9616H50.8618V9.92304H48.1709V12.4257ZM59.1451 14.8841C58.8251 15.2041 58.4453 15.4579 58.0273 15.6311C57.6093 15.8043 57.1613 15.8934 56.7088 15.8934C56.2563 15.8934 55.8083 15.8043 55.3903 15.6311C54.9723 15.4579 54.5925 15.2041 54.2726 14.8841C53.9546 14.5599 53.7046 14.1754 53.5373 13.7532C53.3699 13.3311 53.2886 12.8797 53.2981 12.4257C53.2871 11.9725 53.3667 11.5216 53.5321 11.0995C53.6975 10.6773 53.9455 10.2924 54.2615 9.96734C54.5813 9.64712 54.961 9.39308 55.3791 9.21976C55.7971 9.04643 56.2452 8.95721 56.6977 8.95721C57.1503 8.95721 57.5984 9.04643 58.0164 9.21976C58.4344 9.39308 58.8142 9.64712 59.134 9.96734C59.4559 10.2898 59.7099 10.6734 59.8811 11.0957C60.0523 11.5179 60.1371 11.9702 60.1306 12.4257C60.1439 12.8812 60.0632 13.3345 59.8937 13.7575C59.7241 14.1804 59.4693 14.5639 59.1451 14.8841ZM54.9038 14.3304C55.1371 14.5728 55.4177 14.7646 55.7282 14.8942C56.0387 15.0237 56.3724 15.0881 56.7088 15.0834C57.0455 15.0901 57.3798 15.0266 57.6906 14.897C58.0014 14.7673 58.2817 14.5744 58.5138 14.3304C58.7613 14.0806 58.9548 13.7827 59.0824 13.455C59.21 13.1274 59.269 12.7771 59.2558 12.4257C59.2692 12.0744 59.2102 11.724 59.0826 11.3963C58.9549 11.0687 58.7614 10.7708 58.5138 10.521C58.2817 10.2771 58.0013 10.0842 57.6906 9.95458C57.3798 9.82494 57.0455 9.7614 56.7088 9.76801C56.3724 9.76334 56.0387 9.82777 55.7282 9.95729C55.4177 10.0868 55.1371 10.2787 54.9038 10.521C54.6599 10.7729 54.4695 11.0715 54.3439 11.3988C54.2183 11.7261 54.1602 12.0754 54.1729 12.4257C54.1602 12.7761 54.2183 13.1254 54.3439 13.4527C54.4695 13.78 54.6599 14.0785 54.9038 14.3304ZM64.4273 15.8918C63.97 15.9012 63.5156 15.8179 63.0915 15.6469C62.6673 15.4759 62.2822 15.2207 61.9594 14.8968C61.6365 14.5729 61.3826 14.187 61.2129 13.7623C61.0433 13.3376 60.9614 12.8829 60.9722 12.4257C60.9631 11.9625 61.051 11.5025 61.2303 11.0753C61.4096 10.6481 61.6762 10.2632 62.0132 9.94519C62.3335 9.62111 62.717 9.36637 63.1399 9.19682C63.5628 9.02727 64.0161 8.94653 64.4716 8.95962C64.9352 8.94651 65.3956 9.03945 65.8178 9.23136C66.2401 9.42328 66.6129 9.70909 66.9078 10.067L66.3209 10.6428C66.1033 10.3631 65.8218 10.1397 65.5 9.99134C65.1782 9.84297 64.8255 9.77398 64.4716 9.79016C64.1307 9.78146 63.7917 9.84283 63.4755 9.97045C63.1593 10.0981 62.8726 10.2892 62.6333 10.5321C62.379 10.7766 62.1779 11.071 62.0428 11.3969C61.9077 11.7227 61.8414 12.073 61.8481 12.4257C61.8255 12.9512 61.9654 13.4709 62.2488 13.914C62.5322 14.3572 62.9452 14.7022 63.4316 14.9022C63.7477 15.0311 64.086 15.0925 64.4283 15.0834C64.8144 15.0817 65.1953 14.9944 65.5436 14.8278C65.8919 14.6612 66.199 14.4195 66.4427 14.12L67.0407 14.7069C66.7374 15.0705 66.3598 15.365 65.9333 15.5707C65.4622 15.7912 64.9467 15.9009 64.4273 15.8918ZM70.5189 15.7479H69.6642V9.92304H67.8048V9.10358H72.3662V9.92304H70.5169V15.7479H70.5189ZM78.2363 9.10358L75.7226 14.7069C75.6615 14.9315 75.5523 15.1401 75.4026 15.3183C75.2529 15.4965 75.0663 15.6401 74.8557 15.7391C74.6451 15.8381 74.4154 15.8902 74.1827 15.8917C73.95 15.8932 73.7197 15.8441 73.5078 15.7479L73.7293 14.9616C73.8648 15.0377 74.0169 15.0796 74.1722 15.0834C74.3361 15.0917 74.4985 15.0491 74.6373 14.9616C74.7722 14.8499 74.8749 14.7049 74.9363 14.5408L75.18 14.0093L72.943 9.10358H73.9508L75.5897 12.913L77.2286 9.10358H78.2363ZM79.1997 15.7479V9.10358H84.0058V15.7479H83.1531V9.92304H80.0524V15.7479H79.1997ZM85.5229 15.7479V9.10358H86.3756V11.9496H89.6977V9.10358H90.5615V15.7479H89.6977V12.7469H86.3756V15.7479H85.5229ZM97.5159 14.8841C97.1148 15.2853 96.6209 15.5812 96.0779 15.7455C95.5349 15.9098 94.9598 15.9374 94.4036 15.8258C93.8474 15.7142 93.3274 15.4669 92.8898 15.1059C92.4523 14.745 92.1106 14.2814 91.8954 13.7566C91.7258 13.3339 91.6449 12.8809 91.6578 12.4257C91.6448 11.9702 91.7257 11.5169 91.8955 11.0939C92.0652 10.671 92.3201 10.2875 92.6444 9.96734C92.9633 9.64773 93.342 9.39416 93.759 9.22115C94.1761 9.04814 94.6231 8.95908 95.0746 8.95908C95.5261 8.95908 95.9731 9.04814 96.3901 9.22115C96.8071 9.39416 97.1859 9.64773 97.5048 9.96734C97.8291 10.2875 98.084 10.671 98.2537 11.0939C98.4234 11.5169 98.5043 11.9702 98.4914 12.4257C98.5058 12.8805 98.4266 13.3333 98.2588 13.7562C98.091 14.1791 97.8381 14.563 97.5159 14.8841ZM93.2746 14.3304C93.5066 14.5745 93.787 14.7675 94.0977 14.8971C94.4085 15.0268 94.7429 15.0902 95.0796 15.0834C95.416 15.0882 95.7498 15.0239 96.0603 14.8943C96.3708 14.7648 96.6514 14.5729 96.8846 14.3304C97.1284 14.0785 97.3188 13.7799 97.4444 13.4527C97.57 13.1254 97.6282 12.7761 97.6155 12.4257C97.6283 12.0754 97.5701 11.7261 97.4445 11.3988C97.3189 11.0715 97.1285 10.7729 96.8846 10.521C96.6513 10.2787 96.3707 10.0868 96.0602 9.95729C95.7498 9.82777 95.416 9.76334 95.0796 9.76801C94.743 9.7614 94.4086 9.82494 94.0979 9.95458C93.7871 10.0842 93.5067 10.2771 93.2746 10.521C93.0272 10.7708 92.8336 11.0688 92.706 11.3964C92.5784 11.724 92.5194 12.0744 92.5326 12.4257C92.5193 12.7771 92.5782 13.1275 92.7059 13.4551C92.8335 13.7828 93.0271 14.0807 93.2746 14.3304ZM101.979 15.7479V9.10358H104.382C104.88 9.09858 105.362 9.28031 105.733 9.61298C105.918 9.77352 106.065 9.9728 106.165 10.1967C106.264 10.4206 106.313 10.6636 106.308 10.9086C106.31 11.2066 106.226 11.4996 106.065 11.7502C105.901 11.9882 105.675 12.1763 105.411 12.2938C105.73 12.3996 106.007 12.5999 106.209 12.8687C106.42 13.1365 106.533 13.4687 106.53 13.81C106.535 14.0652 106.484 14.3185 106.381 14.5519C106.278 14.7854 106.124 14.9933 105.932 15.161C105.548 15.5189 105.04 15.7138 104.515 15.7046L101.979 15.7479ZM102.831 11.9496H104.382C104.527 11.9581 104.672 11.9336 104.806 11.878C104.94 11.8224 105.06 11.737 105.157 11.6284C105.344 11.4442 105.452 11.1936 105.456 10.9308C105.466 10.667 105.375 10.4093 105.201 10.211C105.108 10.1082 104.993 10.0272 104.865 9.97359C104.736 9.92002 104.598 9.8952 104.459 9.9009H102.831V11.9496ZM102.831 14.9294H104.548C104.7 14.9356 104.851 14.908 104.991 14.8484C105.131 14.7888 105.255 14.6989 105.356 14.5851C105.547 14.3809 105.654 14.1119 105.655 13.8321C105.65 13.6162 105.582 13.4064 105.46 13.2285C105.337 13.0506 105.165 12.9122 104.966 12.8304C104.823 12.7713 104.669 12.7428 104.515 12.7469H102.831V14.9284V14.9294Z" fill="white" stroke="white" stroke-width="0.201342" stroke-miterlimit="10"/>
<defs>
<linearGradient id="paint0_linear_99_5696" x1="24.1407" y1="10.9968" x2="5.55883" y2="29.5786" gradientUnits="userSpaceOnUse">
<stop stop-color="#00A0FF"/>
<stop offset="0.01" stop-color="#00A1FF"/>
<stop offset="0.26" stop-color="#00BEFF"/>
<stop offset="0.51" stop-color="#00D2FF"/>
<stop offset="0.76" stop-color="#00DFFF"/>
<stop offset="1" stop-color="#00E3FF"/>
</linearGradient>
<linearGradient id="paint1_linear_99_5696" x1="37.4623" y1="23.4993" x2="10.6747" y2="23.4993" gradientUnits="userSpaceOnUse">
<stop stop-color="#FFE000"/>
<stop offset="0.41" stop-color="#FFBD00"/>
<stop offset="0.78" stop-color="#FFA500"/>
<stop offset="1" stop-color="#FF9C00"/>
</linearGradient>
<linearGradient id="paint2_linear_99_5696" x1="27.4955" y1="26.047" x2="2.29151" y2="51.2399" gradientUnits="userSpaceOnUse">
<stop stop-color="#FF3A44"/>
<stop offset="1" stop-color="#C31162"/>
</linearGradient>
<linearGradient id="paint3_linear_99_5696" x1="8.08388" y1="1.55127" x2="19.3349" y2="12.8023" gradientUnits="userSpaceOnUse">
<stop stop-color="#32A071"/>
<stop offset="0.07" stop-color="#2DA771"/>
<stop offset="0.48" stop-color="#15CF74"/>
<stop offset="0.8" stop-color="#06E775"/>
<stop offset="1" stop-color="#00F076"/>
</linearGradient>
</defs>
</svg>
